<svg width="1420" height="800" viewBox="0 0 1420 800" fill="none" xmlns="http://www.w3.org/2000/svg">
<g clip-path="url(#clip0_1002_10812)">
<mask id="mask0_1002_10812" style="mask-type:luminance" maskUnits="userSpaceOnUse" x="0" y="0" width="1420" height="800">
<path d="M1420 0H0V800H1420V0Z" fill="white"/>
</mask>
<g mask="url(#mask0_1002_10812)">
<path d="M43.9987 -9.12002L-32.1213 67L-30 69.1213L46.12 -6.99872L43.9987 -9.12002Z" fill="#2C8DD2" fill-opacity="0.2"/>
<path d="M783.994 -9.11611L707.874 67.0039L709.995 69.1252L786.115 -6.99481L783.994 -9.11611Z" fill="#2C8DD2" fill-opacity="0.2"/>
<path d="M1301.99 -9.11153L1299.87 -6.99023L1375.99 69.1298L1378.11 67.0085L1301.99 -9.11153Z" fill="#2C8DD2" fill-opacity="0.2"/>
<path d="M115.879 66.9999L118 69.1209L189.879 141L115.879 215L118 217.121L192 143.121L194.121 141L192 138.879L120.121 66.9999L192 -4.87909L263.879 66.9999L266 69.1209L268.121 66.9999L342.121 -7.00009L340 -9.12109L266 64.8789L194.121 -7.00009L192 -9.12109L189.879 -7.00009L118 64.8789L115.879 66.9999Z" fill="#2C8DD2" fill-opacity="0.2"/>
<path d="M636 69.1209L707.879 141L710 143.121L781.879 215L710 286.879L707.879 289L636 360.879L633.879 363L636 365.121L707.879 437L710 439.121L712.121 437L784 365.121L855.879 437L858 439.121L932 513.121L934.121 511L860.121 437L858 434.879L786.121 363L858 291.121L860.121 289L932 217.121L1003.88 289L1006 291.121L1008.12 289L1082.12 215L1080 212.879L1006 286.879L934.121 215L1006 143.121L1008.12 141L1080 69.1209L1082.12 66.9999L1154 -4.87909L1228 69.1209L1230.12 66.9999L1156.12 -7.00009L1154 -9.12109L1151.88 -7.00009L1080 64.8789L1006 -9.12109L1003.88 -7.00009L1077.88 66.9999L1006 138.879L932 64.8789L929.879 66.9999L1003.88 141L932 212.879L929.879 215L858 286.879L786.121 215L858 143.121L860.121 141L858 138.879L786.121 66.9999L860.121 -7.00009L858 -9.12109L784 64.8789L781.879 66.9999L710 138.879L638.121 66.9999L712.121 -7.00009L710 -9.12109L636 64.8789L562 -9.12109L559.879 -7.00009L633.879 66.9999L636 69.1209ZM855.879 289L784 360.879L781.879 363L710 434.879L638.121 363L710 291.121L712.121 289L784 217.121L855.879 289ZM784 69.1209L855.879 141L784 212.879L712.121 141L784 69.1209Z" fill="#2C8DD2" fill-opacity="0.2"/>
<path d="M855.879 66.9999L858 69.1209L929.879 141L855.879 215L858 217.121L932 143.121L934.121 141L932 138.879L860.121 66.9999L932 -4.87909L1006 69.1209L1008.12 66.9999L934.121 -7.00009L932 -9.12109L929.879 -7.00009L858 64.8789L855.879 66.9999Z" fill="#2C8DD2" fill-opacity="0.2"/>
<path d="M1450 69.1209L1452.12 66.9999L1450 64.8789L1376 -9.12109L1373.88 -7.00009L1447.88 66.9999L1376 138.879L1304.12 66.9999L1302 64.8789L1228 -9.12109L1225.88 -7.00009L1299.88 66.9999L1228 138.879L1156.12 66.9999L1154 64.8789L1151.88 66.9999L1080 138.879L1077.88 141L1003.88 215L1006 217.121L1080 143.121L1151.88 215L1080 286.879L1077.88 289L1006 360.879L934.121 289L932 286.879L929.879 289L858 360.879L855.879 363L858 365.121L929.879 437L932 439.121L1003.88 511L932 582.879L860.121 511L858 508.879L786.121 437L784 434.879L781.879 437L710 508.879L638.121 437L636 434.879L564.121 363L636 291.121L638.121 289L710 217.121L712.121 215L710 212.879L638.121 141L636 138.879L564.121 66.9999L562 64.8789L488 -9.12109L485.879 -7.00009L559.879 66.9999L488 138.879L416.121 66.9999L414 64.8789L411.879 66.9999L340 138.879L337.879 141L340 143.121L411.879 215L340 286.879L337.879 289L340 291.121L411.879 363L340 434.879L337.879 437L266 508.879L263.879 511L189.879 585L192 587.121L266 513.121L268.121 511L340 439.121L342.121 437L414 365.121L416.121 363L414 360.879L342.121 289L414 217.121L485.879 289L488 291.121L559.879 363L562 365.121L633.879 437L562 508.879L559.879 511L562 513.121L633.879 585L562 656.879L488 582.879L485.879 585L559.879 659L562 661.121L633.879 733L562 804.879L490.121 733L488 730.879L414 656.879L411.879 659L485.879 733L411.879 807L414 809.121L488 735.121L559.879 807L562 809.121L564.121 807L636 735.121L638.121 733L710 661.121L781.879 733L707.879 807L710 809.121L784 735.121L855.879 807L858 809.121L860.121 807L932 735.121L934.121 733L1006 661.121L1008.12 659L1080 587.121L1151.88 659L1154 661.121L1156.12 659L1230.12 585L1228 582.879L1154 656.879L1082.12 585L1080 582.879L1077.88 585L1006 656.879L934.121 585L1006 513.121L1008.12 511L1006 508.879L934.121 437L932 434.879L860.121 363L932 291.121L1003.88 363L1006 365.121L1080 439.121L1082.12 437L1008.12 363L1080 291.121L1154 365.121L1156.12 363L1082.12 289L1154 217.121L1156.12 215L1154 212.879L1082.12 141L1154 69.1209L1225.88 141L1228 143.121L1299.88 215L1228 286.879L1225.88 289L1228 291.121L1299.88 363L1302 365.121L1373.88 437L1299.88 511L1302 513.121L1376 439.121L1450 513.121L1452.12 511L1378.12 437L1450 365.121L1452.12 363L1450 360.879L1378.12 289L1376 286.879L1373.88 289L1302 360.879L1230.12 289L1302 217.121L1304.12 215L1376 143.121L1450 217.121L1452.12 215L1378.12 141L1450 69.1209ZM707.879 215L636 286.879L564.121 215L636 143.121L707.879 215ZM416.121 215L414 212.879L342.121 141L414 69.1209L485.879 141L488 143.121L490.121 141L562 69.1209L633.879 141L562 212.879L559.879 215L488 286.879L416.121 215ZM490.121 289L562 217.121L633.879 289L562 360.879L490.121 289ZM929.879 585L858 656.879L786.121 585L858 513.121L929.879 585ZM784 439.121L855.879 511L784 582.879L712.121 511L784 439.121ZM781.879 585L710 656.879L638.121 585L710 513.121L781.879 585ZM564.121 511L636 439.121L707.879 511L636 582.879L564.121 511ZM636 730.879L564.121 659L636 587.121L707.879 659L636 730.879ZM712.121 659L784 587.121L855.879 659L784 730.879L712.121 659ZM1003.88 659L932 730.879L929.879 733L858 804.879L786.121 733L858 661.121L860.121 659L932 587.121L1003.88 659ZM1376 291.121L1447.88 363L1376 434.879L1304.12 363L1376 291.121ZM1302 212.879L1230.12 141L1302 69.1209L1373.88 141L1302 212.879Z" fill="#2C8DD2" fill-opacity="0.2"/>
<path d="M562 138.879L488 212.879L414 138.879L411.879 141L485.879 215L488 217.121L490.121 215L564.121 141L562 138.879Z" fill="#2C8DD2" fill-opacity="0.2"/>
<path d="M1376 212.879L1373.88 215L1299.88 289L1302 291.121L1376 217.121L1450 291.121L1452.12 289L1378.12 215L1376 212.879Z" fill="#2C8DD2" fill-opacity="0.2"/>
<path d="M783.992 286.882L707.872 363.002L709.993 365.123L786.113 289.003L783.992 286.882Z" fill="#2C8DD2" fill-opacity="0.2"/>
<path d="M-32.121 511L-30 513.121L41.879 585L44 587.121L46.121 585L118 513.121L120.121 511L192 439.121L194.121 437L266 365.121L268.121 363L266 360.879L194.121 289L268.121 215L266 212.879L192 286.879L189.879 289L192 291.121L263.879 363L192 434.879L120.121 363L118 360.879L115.879 363L44 434.879L-30 360.879L-32.121 363L41.879 437L-30 508.879L-32.121 511ZM118 365.121L189.879 437L118 508.879L46.121 437L118 365.121ZM44 439.121L115.879 511L44 582.879L-27.879 511L44 439.121Z" fill="#2C8DD2" fill-opacity="0.2"/>
<path d="M414 513.121L416.121 511L490.121 437L488 434.879L414 508.879L411.879 511L337.879 585L340 587.121L414 513.121Z" fill="#2C8DD2" fill-opacity="0.2"/>
<path d="M1452.12 585L1450 582.879L1378.12 511L1376 508.879L1373.88 511L1302 582.879L1230.12 511L1302 439.121L1304.12 437L1302 434.879L1230.12 363L1228 360.879L1156.12 289L1228 217.121L1230.12 215L1228 212.879L1154 138.879L1151.88 141L1225.88 215L1154 286.879L1151.88 289L1154 291.121L1225.88 363L1154 434.879L1080 360.879L1077.88 363L1151.88 437L1080 508.879L1008.12 437L1006 434.879L932 360.879L929.879 363L1003.88 437L1006 439.121L1077.88 511L1003.88 585L1006 587.121L1080 513.121L1151.88 585L1154 587.121L1156.12 585L1228 513.121L1299.88 585L1228 656.879L1225.88 659L1154 730.879L1082.12 659L1080 656.879L1077.88 659L1006 730.879L1003.88 733L929.879 807L932 809.121L1006 735.121L1008.12 733L1080 661.121L1151.88 733L1077.88 807L1080 809.121L1154 735.121L1228 809.121L1230.12 807L1156.12 733L1228 661.121L1302 735.121L1304.12 733L1230.12 659L1302 587.121L1373.88 659L1376 661.121L1447.88 733L1373.88 807L1376 809.121L1450 735.121L1452.12 733L1450 730.879L1378.12 659L1450 587.121L1452.12 585ZM1228 365.121L1299.88 437L1228 508.879L1156.12 437L1228 365.121ZM1154 582.879L1082.12 511L1154 439.121L1225.88 511L1154 582.879ZM1376 656.879L1304.12 585L1376 513.121L1447.88 585L1376 656.879Z" fill="#2C8DD2" fill-opacity="0.2"/>
<path d="M118 661.121L192 735.121L194.121 733L120.121 659L118 656.879L115.879 659L44 730.879L41.879 733L44 735.121L118 809.121L120.121 807L46.121 733L118 661.121Z" fill="#2C8DD2" fill-opacity="0.2"/>
<path d="M931.988 656.88L855.868 733L857.989 735.121L934.109 659.001L931.988 656.88Z" fill="#2C8DD2" fill-opacity="0.2"/>
<path d="M416.121 733L414 730.879L342.121 659L414 587.121L485.879 659L488 661.121L562 735.121L564.121 733L490.121 659L488 656.879L416.121 585L488 513.121L562 587.121L564.121 585L490.121 511L562 439.121L564.121 437L562 434.879L490.121 363L488 360.879L414 286.879L411.879 289L485.879 363L414 434.879L411.879 437L340 508.879L337.879 511L266 582.879L263.879 585L192 656.879L120.121 585L192 513.121L194.121 511L266 439.121L268.121 437L340 365.121L342.121 363L340 360.879L268.121 289L340 217.121L342.121 215L340 212.879L268.121 141L340 69.1209L342.121 66.9999L414 -4.87909L488 69.1209L490.121 66.9999L416.121 -7.00009L414 -9.12109L411.879 -7.00009L340 64.8789L337.879 66.9999L266 138.879L192 64.8789L189.879 66.9999L263.879 141L192 212.879L189.879 215L118 286.879L46.121 215L118 143.121L120.121 141L118 138.879L46.121 66.9999L120.121 -7.00009L118 -9.12109L44 64.8789L41.879 66.9999L-30 138.879L-32.121 141L-30 143.121L41.879 215L-30 286.879L-32.121 289L-30 291.121L41.879 363L44 365.121L46.121 363L118 291.121L192 365.121L194.121 363L120.121 289L192 217.121L194.121 215L266 143.121L337.879 215L266 286.879L263.879 289L266 291.121L337.879 363L266 434.879L263.879 437L192 508.879L189.879 511L118 582.879L115.879 585L44 656.879L-30 582.879L-32.121 585L41.879 659L-30 730.879L-32.121 733L-30 735.121L44 809.121L46.121 807L-27.879 733L44 661.121L46.121 659L118 587.121L189.879 659L192 661.121L263.879 733L192 804.879L118 730.879L115.879 733L189.879 807L192 809.121L194.121 807L266 735.121L337.879 807L340 809.121L342.121 807L414 735.121L416.121 733ZM-27.879 141L44 69.1209L115.879 141L44 212.879L-27.879 141ZM44 360.879L-27.879 289L44 217.121L115.879 289L44 360.879ZM340 513.121L342.121 511L414 439.121L416.121 437L488 365.121L559.879 437L488 508.879L485.879 511L414 582.879L411.879 585L340 656.879L268.121 585L340 513.121ZM194.121 659L266 587.121L337.879 659L266 730.879L194.121 659ZM340 804.879L268.121 733L340 661.121L411.879 733L340 804.879Z" fill="#2C8DD2" fill-opacity="0.2"/>
<path d="M709.989 730.878L633.869 806.998L635.99 809.119L712.11 732.999L709.989 730.878Z" fill="#2C8DD2" fill-opacity="0.2"/>
<path d="M1079.99 730.882L1003.87 807.002L1005.99 809.123L1082.11 733.003L1079.99 730.882Z" fill="#2C8DD2" fill-opacity="0.2"/>
<path d="M1378.12 733L1376 730.879L1302 656.879L1299.88 659L1373.88 733L1302 804.879L1228 730.879L1225.88 733L1299.88 807L1302 809.121L1304.12 807L1376 735.121L1378.12 733Z" fill="#2C8DD2" fill-opacity="0.2"/>
</g>
</g>
<defs>
<clipPath id="clip0_1002_10812">
<rect width="1420" height="800" fill="white"/>
</clipPath>
</defs>
</svg>
